<svg width="24" height="25" viewBox="0 0 24 25" fill="none" xmlns="http://www.w3.org/2000/svg">
<path d="M8.46492 21.0346C6.44276 21.0346 4.6197 19.8164 3.84572 17.9483C3.07175 16.0801 3.49925 13.9296 4.92892 12.4995L7.05092 10.3775L8.46492 11.7915L6.34392 13.9125C5.58598 14.6705 5.28997 15.7752 5.5674 16.8106C5.84482 17.8459 6.65354 18.6546 7.6889 18.9321C8.72426 19.2095 9.82898 18.9135 10.5869 18.1555L12.7079 16.0345L14.1219 17.4495L12.0009 19.5705C11.065 20.5111 9.79178 21.0382 8.46492 21.0346ZM9.17192 16.7415L7.75792 15.3275L14.8289 8.25653L16.2429 9.67053L9.17292 16.7405L9.17192 16.7415ZM16.9509 14.6205L15.5359 13.2065L17.6569 11.0855C18.4252 10.3299 18.7291 9.2202 18.4532 8.17851C18.1772 7.13683 17.3637 6.32318 16.3221 6.04698C15.2805 5.77077 14.1708 6.07445 13.4149 6.84253L11.2929 8.96353L9.87892 7.54953L12.0009 5.42753C13.956 3.4895 17.1099 3.4964 19.0565 5.44298C21.003 7.38956 21.01 10.5434 19.0719 12.4985L16.9509 14.6195V14.6205Z" fill="#DADADA"/>
</svg>
