<svg width="32" height="33" viewBox="0 0 32 33" fill="none" xmlns="http://www.w3.org/2000/svg">
<path fill-rule="evenodd" clip-rule="evenodd" d="M3.38638 18.7793C3.83978 18.7793 4.20733 19.1469 4.20733 19.6003L4.20734 30.9225H26.8519V19.6002C26.8519 19.1468 27.2195 18.7793 27.6729 18.7793C28.1263 18.7793 28.4938 19.1468 28.4938 19.6002V31.7435C28.4938 32.1969 28.1263 32.5644 27.6729 32.5644H3.38639C2.93299 32.5644 2.56543 32.1969 2.56543 31.7435L2.56543 19.6003C2.56543 19.1469 2.93298 18.7793 3.38638 18.7793Z" fill="white"/>
<path fill-rule="evenodd" clip-rule="evenodd" d="M15.2912 0.804904C15.6118 0.484303 16.1316 0.484303 16.4522 0.804904L31.503 15.8557C31.7378 16.0905 31.808 16.4436 31.681 16.7503C31.5539 17.0571 31.2545 17.2571 30.9225 17.2571H12.5879V27.5019H18.8135V20.3357H15.8717C15.4183 20.3357 15.0508 19.9681 15.0508 19.5147C15.0508 19.0613 15.4183 18.6938 15.8717 18.6938H19.6344C20.0878 18.6938 20.4554 19.0613 20.4554 19.5147V28.3229C20.4554 28.7763 20.0878 29.1438 19.6344 29.1438H11.767C11.3136 29.1438 10.946 28.7763 10.946 28.3229V16.4362C10.946 15.9828 11.3136 15.6152 11.767 15.6152H28.9405L15.8717 2.5464L1.40145 17.0167C1.08085 17.3373 0.561053 17.3373 0.240451 17.0167C-0.0801504 16.6961 -0.0801504 16.1763 0.240451 15.8557L15.2912 0.804904Z" fill="white"/>
</svg>
